<?xml version="1.0" encoding="iso-8859-1"?>
<!-- Generator: Adobe Illustrator 19.1.0, SVG Export Plug-In . SVG Version: 6.00 Build 0)  -->
<svg version="1.1" id="Capa_1" xmlns="http://www.w3.org/2000/svg" xmlns:xlink="http://www.w3.org/1999/xlink" x="0px" y="0px"
	 viewBox="0 0 66.231 66.231" style="enable-background:new 0 0 66.231 66.231;" xml:space="preserve">
<g>
	<g id="group-7svg">
		<path id="path-1_27_" style="fill:#8B71B5;" d="M62.825,52.535h3v-10H20.142l1.92,10h3.763l0,0"/>
		<path id="path-2_27_" style="fill:#E56A77;" d="M20.142,42.535h36.487l9.602-20h-50.99L20.142,42.535z"/>
		<path id="path-3_27_" style="fill:#EDC951;" d="M61.142,53.575c0,3.182-2.579,5.761-5.761,5.761s-5.761-2.579-5.761-5.761
			s2.579-5.761,5.761-5.761S61.142,50.393,61.142,53.575z"/>
		<path id="path-4_26_" style="fill:#EDC951;" d="M38.05,53.575c0,3.182-2.58,5.761-5.762,5.761c-3.181,0-5.761-2.579-5.761-5.761
			s2.58-5.761,5.761-5.761C35.47,47.813,38.05,50.393,38.05,53.575z"/>
		<path id="path-5_22_" d="M51.629,41.535H15.142c-0.691,0-1.293-0.472-1.457-1.143l-4.901-20c-0.109-0.448-0.007-0.92,0.277-1.283
			c0.284-0.362,0.72-0.574,1.18-0.574h50.99c0.516,0,0.995,0.265,1.27,0.701c0.274,0.437,0.305,0.983,0.082,1.448l-9.602,20
			C52.732,41.203,52.206,41.535,51.629,41.535z M16.319,38.535h34.366l8.162-17H12.154L16.319,38.535z"/>
		<path id="path-6_20_" d="M61.325,51.535h-4.5c-0.828,0-1.5-0.671-1.5-1.5s0.672-1.5,1.5-1.5h3v-7H16.957l1.345,7h2.523
			c0.829,0,1.5,0.671,1.5,1.5s-0.671,1.5-1.5,1.5h-3.763c-0.719,0-1.337-0.511-1.473-1.217l-1.92-10
			c-0.085-0.44,0.031-0.894,0.317-1.238c0.284-0.345,0.709-0.545,1.156-0.545h46.183c0.829,0,1.5,0.671,1.5,1.5v10
			C62.825,50.863,62.154,51.535,61.325,51.535z"/>
		<path id="path-7_14_" d="M43.825,51.535h-10c-0.828,0-1.5-0.671-1.5-1.5s0.672-1.5,1.5-1.5h10c0.829,0,1.5,0.671,1.5,1.5
			S44.654,51.535,43.825,51.535z"/>
		<path id="path-8_12_" d="M50.381,58.835c-4.004,0-7.261-3.257-7.261-7.261s3.257-7.261,7.261-7.261s7.261,3.257,7.261,7.261
			S54.385,58.835,50.381,58.835z M50.381,47.313c-2.35,0-4.261,1.911-4.261,4.261c0,2.35,1.911,4.261,4.261,4.261
			s4.261-1.911,4.261-4.261C54.642,49.224,52.731,47.313,50.381,47.313z"/>
		<path id="path-9_10_" d="M27.288,58.835c-4.004,0-7.261-3.257-7.261-7.261s3.257-7.261,7.261-7.261s7.262,3.257,7.262,7.261
			S31.292,58.835,27.288,58.835z M27.288,47.313c-2.349,0-4.261,1.911-4.261,4.261c0,2.35,1.912,4.261,4.261,4.261
			c2.35,0,4.262-1.911,4.262-4.261C31.55,49.224,29.638,47.313,27.288,47.313z"/>
		<path id="path-10_8_" d="M17.061,51.115c-0.672,0-1.284-0.455-1.454-1.137L6.005,11.486c-0.03-0.119-0.045-0.241-0.045-0.363
			c0-0.665-0.674-1.227-1.471-1.227C3.654,9.896,3,10.586,3,11.468c0,0.542,0.266,1.042,0.712,1.337
			c0.69,0.459,0.878,1.39,0.42,2.08c-0.459,0.69-1.39,0.878-2.08,0.419C0.767,14.451,0,13.016,0,11.468
			c0-2.521,2.014-4.572,4.489-4.572c2.393,0,4.353,1.786,4.466,4.022l9.563,38.334c0.2,0.803-0.289,1.617-1.092,1.818
			C17.303,51.101,17.181,51.115,17.061,51.115z"/>
		<path id="path-11_6_" d="M33.221,36.406c-0.383,0-0.767-0.146-1.06-0.439c-0.586-0.586-0.586-1.536,0-2.121l6.855-6.855
			c0.586-0.586,1.535-0.586,2.121,0c0.586,0.585,0.586,1.535,0,2.121l-6.855,6.855C33.989,36.26,33.605,36.406,33.221,36.406z"/>
		<path id="path-12_4_" d="M40.076,36.406c-0.383,0-0.767-0.146-1.06-0.439l-6.855-6.855c-0.586-0.586-0.586-1.536,0-2.121
			c0.586-0.586,1.535-0.586,2.121,0l6.855,6.855c0.586,0.585,0.586,1.535,0,2.121C40.844,36.26,40.46,36.406,40.076,36.406z"/>
	</g>
</g>
<g>
</g>
<g>
</g>
<g>
</g>
<g>
</g>
<g>
</g>
<g>
</g>
<g>
</g>
<g>
</g>
<g>
</g>
<g>
</g>
<g>
</g>
<g>
</g>
<g>
</g>
<g>
</g>
<g>
</g>
</svg>
