<svg xmlns="http://www.w3.org/2000/svg" height="800" width="1200" viewBox="-150 -248.99575 1300 1493.9745"><path d="M159.191 462.88c-1.799 1.086-3.972 1.432-6.407 1.873-2.436.371-7.418 2.76-9.977 10.94-2.588 8.155 11.108 5.125 11.108 5.125 2.222 1.552 10.08-12.861 9.29-17.418-.764-4.633-2.22-1.579-4.014-.52" fill="#231F20"/><path d="M499.521 960.155c-255.749 0-463.844-207.259-463.844-462.017 0-254.709 208.095-461.943 463.844-461.943 255.771 0 463.844 207.234 463.844 461.943 0 254.758-208.073 462.017-463.844 462.017M499.986 0C223.863 0 0 222.979 0 497.967c0 275.089 223.863 498.016 499.986 498.016 276.151 0 500.014-222.927 500.014-498.016C1000 222.979 776.138 0 499.986 0" fill="#231F20"/><path d="M498.487 221.106c-.251 1.132-2.613 7.023-5.668 6.677-2.857-1.848-.349-3.721.221-7.788.563-6.083-.52-10.741-2.687-14.091-.692-.688-1.873-1.849-2.564-2.366-.392-.318-.882-.615-1.873-.542-.881.049-1.304.887-1.327 1.848.171 3.941-.766 7.984-.912 8.896-.367 1.995-.912 4.703-3.379 6.108-1.598.912-.611-4.434-.661-7.565-.073-3.127-1.107-6.971-1.921-8.746-1.702-3.647-6.555-1.132-6.555-1.132l-4.04 1.897c-4.462 3.99-7.417 10.102-7.417 17.149 0 9.214 4.73 14.091 8.23 15.891-.146 0 1.06 1.38.686 2.684-.146 1.555-1.523 1.677-1.701 1.677-15.839 0-24.756-15.056-24.756-33.606 0-18.578 12.858-33.609 28.729-33.609 15.863 0 28.728 15.031 28.728 33.609-.001 3.348-.325 9.952-1.133 13.009m-7.638-47.553c-7.913-5.713-18.629-7.17-26.463-6.65-1.53.343-11.188 5.049-13.948 7.118-18.771 14.217-18.722 51.422-8.623 62.533 6.31 6.95 10.569 10.744 19.517 12.345 10.099 1.824 21.831-.688 28.232-2.61 6.629-2.023 11.824-9.339 15.619-17.149 4.486-9.339 4.664-26.659-.588-39.003-5.251-8.255-4.877-10.128-13.746-16.584M222.958 512.257c1.597 8.5 4.406 7.49 6.971 7.688 8.078.494 12.369-8.723 12.613-11.434.146-2.711 1.677-12.638 3.451-13.871 1.824-1.282-2.515-3.969-6.707-2.39 0 0-17.932 11.408-16.328 20.007" fill="#231F20"/><path d="M815.532 468.621c.74.741 1.255 1.604 1.457 2.687.221 1.01.318 2.513.318 4.41v7.861h4.186c1.629 0 2.858.343 3.697 1.108.887.765 1.279 1.726 1.279 2.932 0 1.478-.588 2.54-1.77 3.155-1.23.591-3.004.912-5.275.912h-2.117v21.043c0 1.721.049 3.121.195 4.088.147.932.472 1.727.986 2.314.544.617 1.432.912 2.662.912.666 0 1.578-.098 2.76-.35 1.107-.221 2.02-.367 2.632-.367.967 0 1.8.393 2.54 1.113.74.711 1.083 1.646 1.083 2.682 0 1.848-.979 3.256-3.005 4.211-2.02.918-4.902 1.432-8.672 1.432-3.574 0-6.305-.588-8.129-1.775-1.872-1.254-3.084-2.883-3.646-5-.57-2.117-.839-4.926-.839-8.451v-21.852h-1.524c-1.627 0-2.912-.395-3.794-1.16-.82-.762-1.285-1.747-1.285-2.907 0-1.206.465-2.167 1.383-2.932.882-.765 2.216-1.108 3.941-1.108h1.279v-6.925c0-1.821.049-3.253.099-4.336.146-1.01.396-1.946.838-2.687.465-.787 1.083-1.401 1.971-1.894.789-.493 1.726-.741 2.785-.741 1.45 0 2.785.541 3.965 1.625m19.096 20.377c0-2.118.52-3.746 1.45-4.877 1.04-1.136 2.319-1.649 3.972-1.649 1.549 0 2.834.489 3.893 1.527 1.059 1.01 1.549 2.463 1.549 4.287v1.083c1.994-2.365 4.119-4.039 6.358-5.15 2.319-1.132 4.804-1.674 7.589-1.674 2.834 0 5.318.566 7.393 1.698 2.069 1.135 3.746 2.833 5.074 5.125 1.922-2.341 4.016-4.039 6.206-5.125 2.222-1.157 4.688-1.698 7.345-1.698 3.157 0 5.838.566 8.108 1.824 2.24 1.206 3.941 2.932 5.05 5.196 1.01 2.071 1.48 5.324 1.48 9.736v22.266c0 2.369-.594 4.168-1.628 5.422-1.132 1.188-2.589 1.775-4.339 1.775-1.721 0-3.152-.588-4.284-1.824-1.083-1.205-1.628-3.029-1.628-5.396v-19.17c0-2.484-.123-4.406-.343-5.884-.202-1.502-.741-2.736-1.702-3.746-.911-1.01-2.295-1.502-4.168-1.502-1.523 0-2.925.444-4.259 1.38-1.353.835-2.437 2.02-3.177 3.571-.863 1.946-1.23 5.325-1.23 10.202v15.148c0 2.393-.568 4.191-1.652 5.396-1.107 1.236-2.516 1.824-4.314 1.824-1.72 0-3.103-.588-4.211-1.824-1.059-1.205-1.604-3.004-1.604-5.396v-18.178c0-2.865-.098-5.08-.293-6.705-.172-1.576-.74-2.883-1.579-3.868-.863-1.034-2.216-1.551-4.112-1.551-3.771 0-6.213 1.279-7.394 3.843-1.206 2.562-1.8 6.236-1.8 11.035v15.424c0 2.367-.538 4.191-1.572 5.396-1.09 1.236-2.516 1.824-4.291 1.824-1.695 0-3.103-.588-4.186-1.824-1.133-1.205-1.701-3.004-1.701-5.373zM362.381 180.181c14.762 0 26.708 13.994 26.708 31.191 0 3.13-.293 9.291-1.034 12.148-.269.985-2.436 6.53-5.251 6.185-2.681-1.726-.343-3.424.129-7.243.563-5.643-.447-9.979-2.442-13.061-.661-.664-1.774-1.748-2.387-2.24-.349-.223-.813-.544-1.726-.468-.814.049-1.236.835-1.262 1.674.178 3.672-.709 7.466-.832 8.305-.373 1.849-.838 4.361-3.158 5.64-1.449.863-.514-4.113-.611-6.996-.049-2.882-.985-6.457-1.775-8.155-1.604-3.354-6.083-1.034-6.083-1.034l-3.722 1.796c-4.191 3.647-6.902 9.388-6.902 15.842 0 8.624 4.388 13.134 7.637 14.783-.146 0 .968 1.307.644 2.537-.147 1.408-1.427 1.53-1.604 1.53-14.707 0-22.987-14.021-22.987-31.243-.001-17.198 11.975-31.191 26.658-31.191m-228.716 517.92c4.656-22.197 8.427-27.496 13.745-37.057 4.859-8.74 33.882-42.693 73.571-44.371 29.419-1.303 62.211 5.178 85.816 8.477 20.129 1.156 26.114-3.5 30.258-5.344 10.691-4.908 20.889-22.596 26.164-16.365 5.227 6.133-2.167 18.184-10.197 26.709-3.898 4.113-9.51 8.428-14.834 23.379-3.551 9.859-12.816 20.6-27.352 18.066-6.506-1.139-6.408-3.379-10.79-4.486-6.604-1.701-10.3-.887-15.968 1.059-4.406 1.531-10.349 11.996-11.922 14.268-2.711 3.818-7.785 15.098-9.389 21.09-2.215 8.354-2.318 19.34-11.285 40.283-2.362 5.471-15.251 14.656-22.785 7.215-5.667-5.668-2.025-25.814 1.077-37.516 3.011-11.709 6.457-18.02 9.688-23.459 2.533-4.314 7.582-10.889 9.234-15.301 0 0 1.727-10.08-4.828-8.354-6.652 1.725-6.604 3.477-12.957 8.672-4.338 3.574-7.441 9.834-12.246 21.83-2.735 6.85-6.358 15.105-10.863 24.371-4.981 10.318-10.648 21.457-16.163 25.57-8.574 6.383-20.698-2.143-20.404-10.496.275-9.113 2.662-20.742 4.829-27.693 2.068-6.775 5.422-10.766 8.947-16.979 4.805-8.52 8.396-14.633 12.24-20.668 5.227-8.133-2.02-10.201-6.549-7.986-3.428 1.578-3.795 1.041-11.579 8.752-5.03 5.025-15.129 23.844-18.728 34.395-3.941 11.703-11.873 15.84-19.119 12.664-5.396-2.346-9.411-12.002-7.611-20.725m248.772-65.857c2.711-.465 16.929 3.941 16.929 3.941s44.371 18.752 172.839 11.707c0 0 22.963-7.32 26.556 1.598 3.599 8.924-5.618 23.361-25.57 26.684-4.835.789-13.972 1.75-13.972 1.75s-110.084 4.707-156.799-11.236c0 0-8.55-1.4-11.701-1.4-3.152 0-25.381-.889-24.885-16.826.439-15.974 13.922-15.773 16.603-16.218m26.243-48.78s62.903 16.084 162.638 11.428c0 0 21.236-3.275 22.124 8.916.937 12.229-.985 21.563-14.462 23.018-13.501 1.402-13.973-1.334-22.914-.959-43.906 1.799-107.299-2.639-142.238-9.096 0 0-7.491-3.004-15.496-4.682-6.629-1.402-14.389-4.707-13.502-14.584.911-9.804 7.662-18.281 23.85-14.041m34.223-31.861c5.986-8.818 21.874-6.352 21.874-6.352s15.82 3.666 49.083 4.137c33.209.465 45.779-3.746 64.648-3.33 18.874.496 15.771 15.521 13.06 23.924-2.711 8.525-21.585 5.693-28.336 5.172-6.702-.465-74.109.521-99.288-.906-25.134-1.407-26.316-14.981-21.041-22.645m50.798-33.459c2.815-6.604 14.296-9.088 14.296-9.088s13.894-1.922 23.355-3.795c9.412-1.848 16.334-2.686 23.525-4.584 7.173-1.871 13.184 5.051 14.518 11.158 1.352 6.139 5.318 14.021-2.369 16.219-3.054.855-16.457 1.971-26.708 3.494-5.813.863-32.419 4.438-43.606 3.916-11.236-.416-5.765-10.984-3.011-17.32m5.79-457.065c-241.967 0-438.828 196.096-438.828 437.083 0 241.014 196.861 437.109 438.828 437.109 191.242 0 354.182-122.525 414.178-292.801-14.412 20.203-39.939 34.125-64.285 38.906-41.984 8.348-71.007-2.908-81.105-5.031-10.055-2.068-13.898 2.068-17.295 8.727-3.477 6.574-4.511 11.531-6.904 17.957-1.572 4.291-3.598 17.148-4.926 22.033-3.152 11.873-4.357 30.82-23.281 36.439-9.985 2.973-15.304-3.525-14.073-16.09 1.083-10.693 4.901-28.459 7.05-35.902 3.99-13.971 4.848-15.771 4.848-19.785 0 0 .227-14.48-6.671-12.688-6.929 1.824-10.349 7.117-13.948 17.326-2.344 6.598-1.604 7.736-5.667 21.75-3.794 13.135-4.364 21.092-6.751 25.576-4.559 8.574-14.192 21.287-21.311 22.369-7.955 1.164-11.774-6.994-12.644-15.129-.931-9.461.202-12.166 1.285-17.906.985-4.787 1.726-8.061 4.015-17.248 2.858-9.854 4.462-14.168 7.711-20.648 5.594-11.285 6.262-19.389-1.082-16.09-3.551 1.652-8.771 6.799-16.85 14.836-5.275 5.268-14.934 19.736-18.679 30.771-4.112 12.172-18.183 21.512-25.796 18.207-5.619-2.436-7.541-8.697-5.619-19.811 3.722-21.781 8.746-32.1 16.041-42.131 6.108-8.404 37.205-47.971 78.645-49.818 41.498-1.775 66.406 13.084 69.038 4.682 2.265-7.271-11.285-21.457-62.655-22.768-10.545-.27-37.18 3.746-50.436 12.516-10.521 6.971-9.707 14.365-21.855 8.941-12.1-5.439-15.398-11.328-13.648-34.811 1.727-23.428 3.422-45.088 0-54.102-3.451-9.047-34.615-37.896-27.645-54.133 6.922-16.237 18.061-21.978 27.248-38.043 19.884-34.836 24.565-90.052 14.217-100.891-10.398-10.793-13.82-3.574-13.82 5.419 0 9.018.27 72.117-30.826 97.369-31.14 25.255-59.746 20.451-64.917 16.831-5.178-3.599-9.486-.419-7.767 6.824 1.775 7.194-1.523 17.32-11.922 26.341-10.35 8.99-44.371 33.428-95.499 57.725-8.005 3.721-20.723 6.354-29.364 9.977-8.679 3.574-12.375.342-23.361 17.59-5.171 8.158-31.292 20.158-41.659 18.678-25.111-3.549-31.097-14.561-29.347-23.6.961-5.006-.024-12.986 26.311-22.229 15.576-5.422 32.596-20.895 35.014-27.639 3.941-10.844 9.113-29.695 18.574-28.434 7.075.955 20.625 12.834 31.023 5.643 10.35-7.221 11.01-14.933 14.462-25.775 3.477-10.817 12.044-18.109 18.997-27.103 6.922-9.04 3.104-17.149 3.104-24.34 0-7.222 2.466-32.771 12.809-32.771 10.35 0 21.041 8.672 40.705 10.003 4.78.346 19.664-.887 20.105-10.423.392-8.005-.986-41.516 5.912-57.701 6.952-16.261 24.688-23.039 31.586-33.881 6.946-10.814-.343-37.522-6.01-31.041-4.389 4.976-13.158 24.392-22.002 28.777-11.311 5.594-15.105 4.287-22.002 2.488-6.947-1.799-11.384-12.54-18.037-4.707-3.004 3.55 3.648 9.067 7.174 10.374 8.054 2.98 10.221 9.287 9.088 21.212-1.726 18.011 8.648 52.284-20.741 52.284-29.37 0-34.573-9.018-41.445-5.398-6.946 3.599-8.673 5.398-8.673 14.44 0 9.04.398 33.655-4.779 46.269-5.227 12.641-18.63 59.377-43.588 49.353-20.992-8.452-20.05-9.486-21.555-11.555-1.481-2.023-7.834-2.096-7.271 1.083 1.114 6.356 2.986 3.62 3.33 11.209.489 12.617-5.619 26.337-14.242 26.337-8.648 0-13.875-3.695-20.747-3.695-6.897 0-9.138 6.408-10.839 11.781 0 0-9.878 31.555-40.999 38.801-31.072 7.223-42.627-3.25-45.926-8.77-9.56-16.359-30.104-25.479-40.454-30.9-10.398-5.465-42.822-19.707-32.822-45.109 4.584-11.68.446-8.847 6.903-18.948 10.245-15.817 50.161-37.054 58.784-44.2 8.574-7.145 16.904-21.757 24.145-45.115 7.295-23.403 27.645-41.488 37.993-50.531 10.398-9.018 36.317-21.632 44.94-34.249 8.672-12.663 18.875-40.8 21.041-51.838 0 .049.691-4.263 2.932-7.121 2.117-2.638 4.015-.937 5 2.093 1.285 3.892 3.525 6.31 4.535 7.442 3.104 3.596 4.486 4.287 8.078 6.059 6.904 3.696 23.654 6.802 39.23-2.488 14.334-11.803 14.407-22.837 15.57-34.123 1.107-10.545-4.633-22.767-15.692-30.182-5.545-3.672-12.938-6.111-22.547-6.111-20.601 0-28.019 26.733-31.886 12.417-3.152-11.726 1.896-23.826 6.555-34.049 15.576-34.099 28.385-52.012 47.357-48.34 19.021 3.595 30.454 43.658 45.975 43.658 7.266 0 20.742-2.931 32.4-10.471a97.535 97.535 0 016.873-3.966c6.604-5.322 15.301-15.377 19.535-19.27 26.984-24.514 43.245-.811 55.314 8.207 12.074 9.015 37.92 47.156 49.965 49.004 12.148 1.774 20.869-11.209 32.773-13.55 16.017-3.179 29.469-4.511 26.017 20.744-3.501 25.279-5.178 30.702 1.726 30.702 6.898 0 22.467-7.247 27.621 5.367 5.195 12.641-12.076 25.282-12.076 34.322 0 8.994 8.673 11.827 17.271 12.617 13.525 1.206 17.247 9.018 13.844 18.033-3.47 8.994-12.117 12.641-8.666 19.835 3.445 7.219 8.666 10.814 17.296 10.814 8.651 0 20.744-3.595 24.196 7.247 3.445 10.79-5.172 32.474-15.545 39.667-10.377 7.219-13.878 18.058-5.182 21.656 8.627 3.623 27.623 3.623 29.374 16.261 1.701 12.638-3.476 21.632-8.647 27.027-5.172 5.422-1.727 16.261 6.896 19.86 8.673 3.623 34.543 9.042 27.646 27.054-6.873 18.082 6.114 53.047-14.536 43.78-12.074-5.471-38.389-2.656-60.666 3.158-10.146 2.633-23.697 11.408-24.786 17.045-1.401 7.369 5.839 5.766 7.735 5.049 13.061-4.797 45.93-11.01 54.754-10.686 18.281.563 40.283 5.961 51.3 11.898 17.247 9.338 22.914 22.791 22.914 22.791s39.267-8.678 69.868 1.084c26.561 8.475 50.687 17.393 52.853 42.4 8.55-33.975 13.184-69.508 13.184-106.119-.002-240.977-196.864-437.073-438.894-437.073" fill="#231F20"/><path d="M398.306 612.089c8.03 1.701 15.521 4.658 15.521 4.658 34.939 6.48 98.332 10.941 142.238 9.119 8.941-.344 9.389 2.338 22.89.959 13.501-1.455 15.423-10.789 14.535-23.018-.888-12.166-22.173-8.916-22.173-8.916-99.734 4.656-162.662-11.428-162.662-11.428-16.163-4.24-22.914 4.236-23.826 14.041-.887 9.855 6.873 13.183 13.477 14.585m-7.565 53.198c3.128 0 11.653 1.377 11.653 1.377 46.765 15.967 156.823 11.26 156.823 11.26s9.137-.961 13.972-1.75c19.952-3.322 29.145-17.76 25.595-26.684-3.617-8.941-26.58-1.598-26.58-1.598-128.468 7.045-172.839-11.707-172.839-11.707s-14.218-4.406-16.929-3.941c-2.711.445-16.163.244-16.629 16.217-.446 15.937 21.758 16.826 24.934 16.826m105.971-129.823c11.188.521 37.793-3.029 43.606-3.916 10.251-1.523 23.654-2.639 26.708-3.52 7.688-2.172 3.721-10.08 2.369-16.193-1.334-6.107-7.32-13.006-14.518-11.158-7.191 1.898-14.113 2.736-23.525 4.561-9.462 1.873-23.355 3.818-23.355 3.818s-11.48 2.484-14.296 9.088c-2.754 6.336-8.225 16.904 3.011 17.32m-32.768 38.784c25.179 1.402 92.586.416 99.288.932 6.751.471 25.625 3.328 28.287-5.197 2.712-8.402 5.863-23.451-13.011-23.898-18.869-.441-31.439 3.77-64.648 3.305-33.263-.471-49.083-4.162-49.083-4.162s-15.888-2.416-21.874 6.377c-5.275 7.662-4.093 21.211 21.041 22.643M141.278 718.8c7.246 3.225 15.178-.936 19.119-12.639 3.599-10.551 13.697-29.369 18.728-34.395 7.784-7.736 8.151-7.174 11.579-8.777 4.554-2.215 11.775-.121 6.549 8.037-3.844 6.033-7.436 12.123-12.24 20.643-3.525 6.213-6.879 10.203-8.947 16.979-2.167 6.928-4.554 18.58-4.829 27.693-.294 8.354 11.83 16.879 20.404 10.496 5.515-4.113 11.182-15.229 16.163-25.57 4.505-9.242 8.128-17.498 10.863-24.371 4.805-11.996 7.908-18.256 12.246-21.807 6.354-5.219 6.305-6.971 12.957-8.695 6.555-1.727 4.828 8.354 4.828 8.354-1.652 4.412-6.701 10.986-9.234 15.301-3.207 5.416-6.678 11.75-9.688 23.434-3.103 11.727-6.744 31.898-1.077 37.541 7.534 7.467 20.423-1.721 22.785-7.215 8.967-20.969 9.07-31.93 11.285-40.26 1.604-5.99 6.678-17.295 9.389-21.113 1.573-2.271 7.516-12.736 11.922-14.268 5.668-1.971 9.364-2.76 15.968-1.082 4.382 1.107 4.284 3.371 10.79 4.51 14.535 2.559 23.801-8.207 27.352-18.092 5.324-14.902 10.936-19.24 14.834-23.354 8.03-8.5 15.424-20.576 10.197-26.709-5.275-6.23-15.473 11.457-26.164 16.365-4.144 1.844-10.129 6.5-30.258 5.318-23.605-3.273-56.397-9.754-85.816-8.477-39.689 1.703-68.712 35.682-73.571 44.396-5.318 9.561-9.089 14.859-13.745 37.057-1.802 8.724 2.237 18.38 7.611 20.7m329.614-544.311c-15.87 0-28.704 15.031-28.704 33.609 0 18.526 8.868 33.606 24.757 33.606.152 0 1.554-.098 1.701-1.677.349-1.303-.882-2.684-.711-2.684-3.5-1.775-8.23-6.677-8.23-15.916 0-6.998 2.932-13.109 7.441-17.1l4.039-1.946s4.829-2.491 6.555 1.132c.79 1.799 1.824 5.667 1.873 8.77.098 3.131-.887 8.477.686 7.565 2.467-1.405 3.035-4.113 3.379-6.108.122-.888 1.083-4.979.912-8.896 0-.936.446-1.799 1.327-1.848.991-.073 1.481.223 1.873.517.691.542 1.872 1.702 2.564 2.415 2.167 3.326 3.2 7.959 2.662 14.092-.545 4.042-3.054 5.915-.171 7.739 3.054.395 5.367-5.521 5.643-6.653.808-3.057 1.132-9.661 1.132-13.008-.001-18.578-12.89-33.609-28.728-33.609m-112.183 68.126c.177 0 1.456-.122 1.604-1.502.349-1.257-.79-2.564-.644-2.564-3.249-1.649-7.637-6.184-7.637-14.783 0-6.454 2.686-12.194 6.879-15.842l3.721-1.796s4.529-2.319 6.107 1.034c.766 1.699 1.727 5.273 1.8 8.155.049 2.883-.862 7.858.563 7.02 2.344-1.304 2.857-3.816 3.158-5.665.146-.838 1.033-4.633.832-8.305.049-.839.471-1.625 1.31-1.674.911-.052 1.328.245 1.701.468.637.493 1.702 1.576 2.362 2.24 2.02 3.057 3.005 7.393 2.491 13.061-.521 3.794-2.834 5.517-.153 7.243 2.84.346 4.957-5.175 5.251-6.209.741-2.858 1.034-9.018 1.034-12.124 0-17.198-11.977-31.191-26.708-31.191-14.683 0-26.659 13.994-26.659 31.191.001 17.247 8.281 31.243 22.988 31.243" fill="#FFF"/><path d="M163.206 463.4c.79 4.557-7.044 18.97-9.314 17.443 0 0-13.697 3.029-11.107-5.15 2.582-8.18 7.539-10.545 9.975-10.94 2.461-.44 4.634-.786 6.457-1.848 1.768-1.059 3.249-4.113 3.989.495m82.787 31.241c-1.774 1.233-3.305 11.16-3.5 13.847-.195 2.76-4.486 11.928-12.564 11.432-2.564-.146-5.374.863-6.971-7.637-1.604-8.625 16.328-20.008 16.328-20.008 4.193-1.604 8.531 1.108 6.707 2.366m259.19-265.502c-3.795 7.834-8.99 15.15-15.619 17.173-6.401 1.897-18.134 4.41-28.207 2.586-8.948-1.601-13.257-5.395-19.566-12.345-10.074-11.111-10.123-48.315 8.647-62.533 2.761-2.068 12.418-6.775 13.948-7.118 7.834-.496 18.574.937 26.463 6.65 8.869 6.457 8.495 8.329 13.746 16.558 5.252 12.369 5.074 29.665.588 39.029m420.016 375.116c-2.166-25.008-26.292-33.9-52.853-42.375-30.602-9.762-69.868-1.084-69.868-1.084s-5.667-13.477-22.914-22.791c-11.017-5.938-33.019-11.359-51.3-11.898-8.824-.324-41.693 5.863-54.754 10.686-1.896.748-9.137 2.295-7.735-5.049 1.089-5.637 14.64-14.412 24.786-17.068 22.277-5.814 48.592-8.58 60.666-3.135 20.65 9.291 7.663-25.722 14.536-43.78 6.897-18.036-18.973-23.456-27.646-27.03-8.623-3.623-12.068-14.462-6.896-19.86 5.172-5.419 10.349-14.413 8.647-27.076-1.751-12.614-20.747-12.614-29.374-16.261-8.696-3.599-5.195-14.413 5.182-21.607 10.373-7.219 18.99-28.903 15.545-39.692-3.452-10.817-15.545-7.247-24.196-7.247-8.63 0-13.851-3.571-17.296-10.814-3.451-7.219 5.196-10.817 8.666-19.835 3.403-8.991-.318-16.828-13.844-18.058-8.599-.765-17.271-3.599-17.271-12.617 0-9.04 17.271-21.656 12.076-34.297-5.154-12.614-20.723-5.395-27.621-5.395-6.903 0-5.227-5.419-1.726-30.674 3.452-25.279-10-23.923-26.017-20.769-11.904 2.365-20.625 15.374-32.773 13.55-12.045-1.824-37.891-39.964-49.965-48.955-12.069-9.042-28.33-32.746-55.314-8.207-4.234 3.844-12.932 13.923-19.535 19.22-2.216 1.157-4.486 2.488-6.873 4.015-11.658 7.491-25.135 10.472-32.4 10.472-15.521 0-26.953-40.063-45.975-43.708-18.973-3.623-31.781 14.266-47.357 48.34-4.658 10.224-9.707 22.323-6.555 34.099 3.867 14.291 11.285-12.442 31.886-12.442 9.608 0 17.002 2.414 22.547 6.111 11.06 7.439 16.8 19.637 15.692 30.182-1.163 11.286-1.236 22.348-15.57 34.123-15.576 9.29-32.326 6.208-39.23 2.463-3.592-1.748-4.975-2.412-8.078-6.035-1.01-1.157-3.25-3.574-4.535-7.442-.985-3.03-2.883-4.707-5-2.093-2.24 2.858-2.932 7.145-2.932 7.096-2.166 11.087-12.369 39.2-21.041 51.838-8.623 12.641-34.542 25.255-44.94 34.273-10.349 9.042-30.698 27.152-37.993 50.506-7.24 23.382-15.57 37.97-24.145 45.139-8.623 7.17-48.539 28.358-58.784 44.2-6.457 10.126-2.319 7.243-6.903 18.924-10 25.426 22.424 39.668 32.822 45.133 10.35 5.422 30.895 14.566 40.454 30.9 3.299 5.545 14.854 16.016 45.926 8.77 31.121-7.221 40.999-38.777 40.999-38.777 1.701-5.396 3.941-11.781 10.839-11.781 6.872 0 12.099 3.648 20.747 3.648 8.623 0 14.731-13.697 14.242-26.314-.344-7.564-2.216-4.877-3.33-11.209-.563-3.204 5.79-3.13 7.271-1.111 1.505 2.072.563 3.13 21.555 11.558 24.958 10.074 38.361-36.712 43.588-49.353 5.178-12.614 4.779-37.205 4.779-46.244 0-9.018 1.727-10.842 8.673-14.413 6.872-3.648 12.075 5.395 41.445 5.395 29.39 0 19.016-34.297 20.741-52.309 1.133-11.901-1.034-18.208-9.088-21.188-3.525-1.332-10.178-6.876-7.174-10.423 6.653-7.785 11.09 2.956 18.037 4.731 6.896 1.799 10.691 3.082 22.002-2.512 8.844-4.385 17.613-23.777 22.002-28.752 5.667-6.457 12.956 20.227 6.01 31.041-6.897 10.842-24.634 17.62-31.586 33.881-6.898 16.212-5.521 49.72-5.912 57.676-.441 9.56-15.325 10.793-20.105 10.447-19.664-1.355-30.355-9.979-40.705-9.979-10.343 0-12.809 25.5-12.809 32.722 0 7.243 3.818 15.3-3.104 24.34-6.953 9.042-15.521 16.31-18.997 27.152-3.452 10.817-4.112 18.53-14.462 25.75-10.398 7.191-23.948-4.688-31.023-5.643-9.461-1.236-14.633 17.613-18.574 28.434-2.418 6.744-19.438 22.217-35.014 27.639-26.335 9.217-25.35 17.248-26.311 22.229-1.75 9.039 4.235 20.074 29.347 23.6 10.367 1.48 36.488-10.52 41.659-18.703 10.986-17.197 14.683-13.967 23.361-17.564 8.642-3.648 21.359-6.23 29.364-10 51.128-24.248 85.149-48.686 95.499-57.701 10.398-9.021 13.697-19.147 11.922-26.341-1.72-7.243 2.589-10.447 7.767-6.824 5.171 3.62 33.777 8.424 64.917-16.855 31.096-25.251 30.826-88.326 30.826-97.319 0-9.042 3.422-16.237 13.82-5.419 10.349 10.814 5.667 66.03-14.217 100.866-9.188 16.065-20.326 21.806-27.248 38.067-6.971 16.187 24.193 45.087 27.645 54.109 3.422 9.014 1.727 30.697 0 54.127-1.75 23.434 1.549 29.369 13.648 34.785 12.148 5.424 11.334-1.971 21.855-8.965 13.256-8.746 39.891-12.762 50.436-12.492 51.37 1.334 64.92 15.496 62.655 22.768-2.632 8.379-27.54-6.48-69.038-4.658-41.439 1.824-72.536 41.367-78.645 49.77-7.295 10.057-12.319 20.398-16.041 42.156-1.922 11.139 0 17.398 5.619 19.811 7.613 3.305 21.684-6.059 25.796-18.207 3.745-11.035 13.403-25.479 18.679-30.771 8.078-8.012 13.299-13.184 16.85-14.836 7.344-3.299 6.676 4.805 1.082 16.113-3.249 6.482-4.853 10.742-7.711 20.625-2.289 9.188-3.029 12.461-4.015 17.271-1.083 5.717-2.216 8.445-1.285 17.883.869 8.158 4.688 16.268 12.644 15.105 7.118-1.059 16.752-13.795 21.311-22.32 2.387-4.51 2.957-12.492 6.751-25.576 4.063-14.039 3.323-15.178 5.667-21.775 3.6-10.232 7.02-15.502 13.948-17.326 6.897-1.793 6.671 12.662 6.671 12.662 0 4.016-.857 5.84-4.848 19.811-2.148 7.418-5.967 25.209-7.05 35.902-1.23 12.564 4.088 19.063 14.073 16.113 18.924-5.643 20.129-24.615 23.281-36.463 1.328-4.885 3.354-17.768 4.926-22.059 2.394-6.4 3.428-11.357 6.904-17.932 3.396-6.658 7.24-10.795 17.295-8.727 10.099 2.123 39.121 13.354 81.105 5.006 24.346-4.779 49.873-18.678 64.285-38.906-59.996 170.301-222.936 292.801-414.178 292.801-241.967 0-438.828-196.096-438.828-437.107 0-240.963 196.861-437.059 438.828-437.059 242.03 0 438.892 196.096 438.892 437.059.002 36.609-4.632 72.165-13.182 106.114M499.491 36.195c-255.744 0-463.813 207.259-463.813 461.943 0 254.758 208.069 462.017 463.813 462.017 255.825 0 463.874-207.259 463.874-462.017 0-254.684-208.049-461.943-463.874-461.943" fill="#FFF"/><path d="M806.812 469.63c-.441.741-.691 1.677-.789 2.711-.123 1.059-.172 2.491-.172 4.312v6.925h-1.23c-1.75 0-3.084.343-3.99 1.108-.918.765-1.358 1.726-1.358 2.932 0 1.16.44 2.145 1.31 2.882.881.79 2.117 1.185 3.795 1.185h1.475v21.852c0 3.525.318 6.359.887 8.451.515 2.117 1.751 3.771 3.623 5 1.8 1.188 4.555 1.775 8.129 1.775 3.77 0 6.652-.514 8.672-1.457 2.025-.93 3.005-2.338 3.005-4.186 0-1.059-.367-1.971-1.108-2.682-.715-.721-1.548-1.088-2.484-1.088-.643 0-1.529.121-2.662.342-1.156.227-2.068.324-2.76.324-1.23 0-2.118-.27-2.662-.887-.539-.588-.839-1.359-1.01-2.338-.123-.943-.172-2.344-.172-4.064v-21.043h2.143c2.246 0 3.996-.321 5.227-.912 1.181-.615 1.793-1.677 1.793-3.155 0-1.206-.393-2.167-1.279-2.932-.839-.765-2.068-1.108-3.672-1.108h-4.211v-7.861c0-1.897-.098-3.375-.294-4.41-.251-1.083-.741-1.946-1.481-2.662-1.205-1.108-2.516-1.649-3.99-1.649-1.034 0-1.971.248-2.784.741-.868.493-1.511 1.108-1.951 1.894m33.703 59.133c1.775 0 3.201-.588 4.266-1.824 1.06-1.205 1.598-3.029 1.598-5.396v-15.424c0-4.799.594-8.473 1.8-11.01 1.156-2.589 3.623-3.868 7.394-3.868 1.872 0 3.273.517 4.088 1.551.887.985 1.407 2.316 1.604 3.893.195 1.6.318 3.815.318 6.68v18.178c0 2.393.52 4.217 1.604 5.396 1.083 1.236 2.466 1.824 4.186 1.824 1.799 0 3.207-.588 4.291-1.824 1.132-1.18 1.676-3.004 1.676-5.396V506.42c0-4.902.393-8.281 1.23-10.228.74-1.551 1.824-2.711 3.152-3.596 1.383-.912 2.785-1.355 4.283-1.355 1.85 0 3.257.493 4.193 1.502.912 1.034 1.499 2.243 1.701 3.746.172 1.454.318 3.399.318 5.884v19.17c0 2.367.545 4.191 1.652 5.396 1.083 1.236 2.516 1.824 4.26 1.824 1.774 0 3.23-.588 4.314-1.775 1.083-1.229 1.652-3.053 1.652-5.422V499.3c0-4.412-.496-7.692-1.48-9.736-1.108-2.265-2.81-3.991-5.025-5.196-2.295-1.233-4.976-1.824-8.133-1.824-2.656 0-5.099.542-7.345 1.674-2.216 1.086-4.284 2.809-6.182 5.15-1.353-2.292-3.054-3.99-5.099-5.125-2.074-1.132-4.534-1.698-7.417-1.698-2.761 0-5.27.542-7.564 1.649-2.265 1.111-4.388 2.809-6.358 5.174v-1.083c0-1.824-.515-3.253-1.573-4.263-1.034-1.062-2.319-1.551-3.893-1.551-1.604 0-2.907.514-3.947 1.649-.931 1.107-1.427 2.76-1.427 4.877v32.568c0 2.369.545 4.193 1.652 5.373 1.108 1.237 2.492 1.825 4.211 1.825" fill="#FFF"/></svg>