<?xml version="1.0" encoding="iso-8859-1"?>
<!-- Generator: Adobe Illustrator 19.1.0, SVG Export Plug-In . SVG Version: 6.00 Build 0)  -->
<svg version="1.1" id="Capa_1" xmlns="http://www.w3.org/2000/svg" xmlns:xlink="http://www.w3.org/1999/xlink" x="0px" y="0px"
	 viewBox="0 0 66 66" style="enable-background:new 0 0 66 66;" xml:space="preserve">
<g>
	<g id="group-27svg">
		<path id="path-1_18_" style="fill:#E56A77;" d="M6,43.983v-5.004c0-2.202,1.8-4.003,4-4.003h27.76c0.684,0,1.24-0.555,1.24-1.241
			V21.967c0-2.202,1.8-4.003,4-4.003h10.186c1.555,0,2.944,1.291,3.471,2.755l4.508,9.512c0.301,0.834,0.892,1.611,1.664,2.046
			l1.909,1.461C65.901,34.391,66,35.662,66,36.997v6.986h-2.76H6z"/>
		<path id="path-2_18_" style="fill:#81BDA4;" d="M7,51.988h59v-8.005H7V51.988z"/>
		<path id="path-3_18_" style="fill:#81BDA4;" d="M25.623,10.959H10c-2.2,0-4,1.801-4,4.003v13.783c0,0.678,0.549,1.228,1.227,1.228
			h25.104c0.922,0,1.669-0.748,1.669-1.67v-8.961C34,14.732,30.23,10.959,25.623,10.959z"/>
		<path id="path-4_18_" style="fill:#EDC951;" d="M56,24.969H44.784c-0.982,0-2.784,0.967-2.784,1.95v3.561
			c0,0.983,1.802,1.494,2.784,1.494H60l0,0"/>
		<path id="path-5_18_" style="fill:#EDC951;" d="M60.469,53.435c0,2.269-1.838,4.108-4.106,4.108c-2.266,0-4.104-1.839-4.104-4.108
			c0-2.269,1.838-4.108,4.104-4.108C58.631,49.327,60.469,51.166,60.469,53.435z"/>
		<path id="path-6_17_" style="fill:#EDC951;" d="M29.434,53.435c0,2.269-1.838,4.108-4.105,4.108c-2.268,0-4.105-1.839-4.105-4.108
			c0-2.269,1.837-4.108,4.105-4.108C27.596,49.327,29.434,51.166,29.434,53.435z"/>
		<path id="path-7_17_" style="fill:#EDC951;" d="M19.089,53.435c0,2.269-1.838,4.108-4.105,4.108s-4.105-1.839-4.105-4.108
			c0-2.269,1.838-4.108,4.105-4.108S19.089,51.166,19.089,53.435z"/>
		<path id="path-8_16_" d="M61.5,43.983h-60c-0.828,0-1.5-0.672-1.5-1.501v-5.004c0-3.035,2.468-5.504,5.5-5.504h27.26
			c0.133,0,0.24-0.108,0.24-0.24V20.466c0-3.035,2.468-5.504,5.5-5.504h9.686c2.234,0,4.123,1.964,4.857,3.928l4.48,9.578
			c0.02,0.042,0.037,0.084,0.053,0.128c0.207,0.573,0.595,1.088,0.987,1.308c0.041,0.023,0.081,0.048,0.119,0.074l2.108,1.458
			c1.024,0.6,2.21,1.876,2.21,4.56v6.486C63,43.311,62.328,43.983,61.5,43.983z M3,40.981h57v-4.985
			c0-1.036-0.251-1.703-0.746-1.981c-0.041-0.023-0.08-0.048-0.118-0.074l-2.109-1.458c-0.981-0.576-1.795-1.589-2.248-2.799
			l-4.48-9.58c-0.02-0.041-0.037-0.084-0.053-0.127c-0.386-1.072-1.349-2.013-2.06-2.013H38.5c-1.379,0-2.5,1.123-2.5,2.502v11.268
			c0,1.788-1.453,3.242-3.24,3.242H5.5c-1.379,0-2.5,1.123-2.5,2.502V40.981z"/>
		<path id="path-9_14_" d="M7,52.989H1.5c-0.828,0-1.5-0.672-1.5-1.501v-8.506c0-0.829,0.672-1.501,1.5-1.501S3,42.153,3,42.982
			v7.005h4c0.828,0,1.5,0.672,1.5,1.501S7.828,52.989,7,52.989z"/>
		<path id="path-10_12_" d="M49,52.989H27c-0.828,0-1.5-0.672-1.5-1.501s0.672-1.501,1.5-1.501h22c0.828,0,1.5,0.672,1.5,1.501
			S49.828,52.989,49,52.989z"/>
		<path id="path-11_12_" d="M61.5,52.989H58c-0.828,0-1.5-0.672-1.5-1.501s0.672-1.501,1.5-1.501h2v-7.005
			c0-0.829,0.672-1.501,1.5-1.501s1.5,0.672,1.5,1.501v8.506C63,52.317,62.328,52.989,61.5,52.989z"/>
		<path id="path-12_11_" d="M57,31.974H41.784c-0.935,0-3.784,0-3.784-2.495v-3.56c0-1.689,1.871-3.952,3.784-3.952H53
			c0.828,0,1.5,0.672,1.5,1.501c0,0.829-0.672,1.501-1.5,1.501H41.784c-0.2,0.075-0.736,0.687-0.786,0.985L41,28.95
			c0.27,0.022,0.604,0.022,0.784,0.022H57c0.828,0,1.5,0.672,1.5,1.501C58.5,31.302,57.828,31.974,57,31.974z"/>
		<path id="path-13_9_" d="M53.363,58.043c-3.09,0-5.604-2.516-5.604-5.608c0-3.094,2.514-5.609,5.604-5.609
			c3.091,0,5.606,2.515,5.606,5.609C58.969,55.527,56.454,58.043,53.363,58.043z M53.363,49.828c-1.436,0-2.604,1.169-2.604,2.607
			c0,1.437,1.168,2.606,2.604,2.606c1.437,0,2.606-1.169,2.606-2.606C55.969,50.997,54.8,49.828,53.363,49.828z"/>
		<path id="path-14_8_" d="M22.329,58.043c-3.091,0-5.605-2.516-5.605-5.608c0-3.094,2.514-5.609,5.605-5.609
			s5.605,2.515,5.605,5.609C27.934,55.527,25.42,58.043,22.329,58.043z M22.329,49.828c-1.436,0-2.605,1.169-2.605,2.607
			c0,1.437,1.169,2.606,2.605,2.606c1.437,0,2.605-1.169,2.605-2.606C24.934,50.997,23.766,49.828,22.329,49.828z"/>
		<path id="path-15_7_" d="M11.984,58.043c-3.09,0-5.605-2.516-5.605-5.608c0-3.094,2.515-5.609,5.605-5.609
			s5.605,2.515,5.605,5.609C17.589,55.527,15.074,58.043,11.984,58.043z M11.984,49.828c-1.436,0-2.605,1.169-2.605,2.607
			c0,1.437,1.169,2.606,2.605,2.606c1.437,0,2.605-1.169,2.605-2.606C14.589,50.997,13.421,49.828,11.984,49.828z"/>
		<path id="path-16_5_" d="M27.331,29.973H2.227c-1.228,0-2.227-1-2.227-2.228V13.461c0-3.035,2.468-5.504,5.5-5.504h15.123
			C26.345,7.957,31,12.616,31,18.342v7.959C31,28.326,29.354,29.973,27.331,29.973z M3,26.971h24.331
			c0.362,0,0.669-0.307,0.669-0.67v-7.959c0-4.071-3.31-7.383-7.377-7.383H5.5c-1.379,0-2.5,1.123-2.5,2.502V26.971z"/>
	</g>
</g>
<g>
</g>
<g>
</g>
<g>
</g>
<g>
</g>
<g>
</g>
<g>
</g>
<g>
</g>
<g>
</g>
<g>
</g>
<g>
</g>
<g>
</g>
<g>
</g>
<g>
</g>
<g>
</g>
<g>
</g>
</svg>
