<svg xmlns="http://www.w3.org/2000/svg" height="800" width="1200" viewBox="-7.354095 -7.8978 63.73549 47.3868"><path d="M12.0385 22.8865c0-2.0903-1.614-4.4186-4.3391-4.4186-2.6988 0-4.3392 1.9315-4.3392 6.35 0 3.7042 1.6933 5.715 4.4186 5.715 2.143 0 4.2597-1.6404 4.2597-3.9158zm4.3921 8.255c-1.7727 0-3.0162.0793-4.392.2645v-2.143c-.979 1.3493-2.593 2.2753-4.842 2.2753C2.2226 31.5648 0 28.1253 0 24.6856c0-3.4396 2.4606-7.1966 7.4348-7.1966 1.7198 0 3.466.7672 4.6037 2.2754v-7.3025H9.6308v-.9525h1.1907c1.8256 0 3.2543-.1852 4.5508-.5027V30.189h2.2225v.9525zm12.5677-20.029c-.9525 0-1.9579-.5027-1.9579-1.4817 0-1.0848 1.2171-1.4023 1.2171-1.6404 0-.1323-.291-.5027-1.0583-.5027-1.4817 0-2.7252 1.1642-2.7252 4.0746v6.3764h3.0162v1.0055H24.474V30.189h2.8575v.9525h-8.7313v-.9525h2.5136V18.9442h-2.6459v-1.0055h2.6723v-3.519c0-5.9795 3.175-7.6993 6.1119-7.6993 1.8256 0 3.8629 1.0054 3.8629 2.6723 0 1.217-1.1906 1.7198-2.1167 1.7198" fill="#5c2483"/><path d="M35.1367 31.5912c-2.249 0-4.3392-.7143-5.2917-1.614v1.1643h-1.0054v-4.4186h.7673c.5027 2.4077 2.4341 3.9952 5.7944 3.9952 3.2014 0 3.9952-1.5081 3.9952-2.4606 0-3.863-10.3717-.0794-10.3717-6.4823 0-2.249 1.958-4.2598 5.8737-4.2598 1.5346 0 3.1486.4233 4.5244 1.2171v-.7673h1.0054v3.757h-.6879c-.2381-1.8255-2.3812-3.3337-4.8154-3.3337-2.9633 0-3.9158 1.3759-3.9158 2.2755 0 3.4925 10.2658.0529 10.2658 6.3235 0 2.9369-2.3019 4.6037-6.1383 4.6037" fill="#5c2483"/><path d="M41.0369 12.9646c.1323 0 .344-.0265.926-.291.6086-.2646 1.958-1.0055 3.5454-2.3284 1.5875-1.2965 3.519-3.81 3.519-6.3235C49.0273 1.508 46.99 0 44.8998 0c-2.1167 0-3.8894 1.5081-3.8894 1.5081h-.0529S39.1848 0 37.0945 0c-2.0901 0-4.1274 1.5081-4.1274 4.0217 0 2.5135 1.9579 5.0006 3.519 6.3235 1.5345 1.2965 2.9633 2.0902 3.5454 2.3283.6085.2646.7937.291.926.291z" fill="#c7017f"/><path d="M36.7242 3.228c.6879.6878 1.1377 1.4551 1.3229 2.3018.6614-.1588 1.27-.2381 1.7727-.2381.4762 0 .8731.0529 1.1642.1852.3175-.1323.7143-.1852 1.1641-.1852.5292 0 1.1113.0793 1.7727.238.1852-.8466.635-1.6139 1.323-2.3018-.8732-.2117-1.614-.3175-2.2755-.3175-.635 0-1.1377.0794-1.508.2117-.1853.0529-.3176.1323-.4499.2381l-.0529.0265-.053-.0265c-.1322-.1058-.291-.1852-.4497-.2381-.3969-.1323-.8996-.2117-1.5081-.2117-.6086.0265-1.3494.1323-2.2225.3175m8.5725 4.5508c.0264-1.5345.4233-3.175.7408-4.3127l-.2646-.1058h-.0264c-.4234.3969-1.0055 1.2435-1.2436 2.3283l.3704.1059v.3175l-.0793-.0265c-.8732-.2381-1.614-.344-2.196-.344-.5028 0-.8997.053-1.1907.1588-.1323.053-.2646.1058-.3704.1852l-.053.0265-.0529-.0265c-.1058-.0794-.2116-.1323-.3704-.1852-.3175-.1058-.7143-.1587-1.1906-.1587-.582 0-1.2965.1058-2.196.344l-.0794.0264v-.3175l.3704-.1059c-.2381-1.0848-.7937-1.9314-1.2435-2.3283h-.053l-.2645.0794c.344 1.1377.7408 2.7781.7408 4.3127h8.6519zm-9.0752.397v-.0795c-.0265-1.852-.4763-3.9687-.6615-4.789l-.0265-.0528 1.1378-.3969.5027-.1323c.873-.2117 1.6404-.3175 2.3283-.3175.582 0 1.0848.0794 1.4817.2646.3968-.1588.8995-.2646 1.4816-.2646.688 0 1.4552.1058 2.3284.3175l.5027.1323 1.1641.3969-.0264.0529c-.1852.8202-.6615 2.9633-.6615 4.789v.0793z" fill="#fff"/></svg>