<?xml version="1.0" encoding="iso-8859-1"?>
<!-- Generator: Adobe Illustrator 19.1.0, SVG Export Plug-In . SVG Version: 6.00 Build 0)  -->
<svg version="1.1" id="Capa_1" xmlns="http://www.w3.org/2000/svg" xmlns:xlink="http://www.w3.org/1999/xlink" x="0px" y="0px"
	 viewBox="0 0 66 66" style="enable-background:new 0 0 66 66;" xml:space="preserve">
<g>
	<g id="group-15svg">
		<path id="path-1_6_" style="fill:#81BDA4;" d="M66,46.328c0,4.418-3.582,8-8,8H14c-4.418,0-8-3.582-8-8v-22c0-4.418,3.582-8,8-8
			h44c4.418,0,8,3.582,8,8V46.328z"/>
		<path id="path-2_6_" style="fill:#EDC951;" d="M52.846,16.352c0,0,0.154,14.501,13.154,13.101V24.28
			c0-4.46-3.522-8.059-7.982-7.999L52.846,16.352z"/>
		<path id="path-3_6_" style="fill:#EDC951;" d="M18.654,54.6c0,0-0.654-14.501-13.654-13.101v5.173c0,4.461,3.772,8.059,8.232,8
			L18.654,54.6z"/>
		<path id="path-4_6_" d="M53.5,52.328h-44c-5.238,0-9.5-4.262-9.5-9.5v-22c0-5.238,4.262-9.5,9.5-9.5h44c5.238,0,9.5,4.262,9.5,9.5
			v22C63,48.066,58.738,52.328,53.5,52.328z M9.5,14.328c-3.584,0-6.5,2.916-6.5,6.5v22c0,3.584,2.916,6.5,6.5,6.5h44
			c3.584,0,6.5-2.916,6.5-6.5v-22c0-3.584-2.916-6.5-6.5-6.5H9.5z"/>
		<path id="path-5_6_" d="M59.784,28.048C59.783,28.048,59.783,28.048,59.784,28.048c-10.108,0-13.046-9.586-13.188-14.654
			c-0.011-0.401,0.139-0.791,0.417-1.081c0.278-0.289,0.661-0.455,1.063-0.461l5.426-0.072c5.237,0,9.498,4.262,9.498,9.5v5.173
			c0,0.767-0.578,1.409-1.339,1.492C61.02,28.014,60.389,28.048,59.784,28.048z M49.745,14.83
			c0.467,3.185,2.368,10.218,10.038,10.218h0.001c0.071,0,0.143,0,0.216-0.001V21.28c0-3.584-2.915-6.5-6.498-6.5L49.745,14.83z"/>
		<path id="path-6_6_" d="M9.498,52.172c-5.237,0-9.498-4.261-9.498-9.5v-5.173c0-0.766,0.578-1.409,1.339-1.491
			c0.64-0.069,1.272-0.104,1.878-0.104c10.106,0,13.045,9.586,13.187,14.654c0.011,0.402-0.139,0.791-0.417,1.081
			c-0.279,0.29-0.661,0.456-1.063,0.461L9.498,52.172z M3,38.906v3.766c0,3.584,2.915,6.5,6.498,6.5l3.757-0.05
			C12.783,45.907,10.85,38.771,3,38.906z"/>
		<path id="path-7_4_" d="M34.231,40.328H27c-0.829,0-1.5-0.671-1.5-1.5c0-0.829,0.671-1.5,1.5-1.5h7.231
			c0.976,0,1.769-0.746,1.769-1.662c0-1.3-1.587-1.338-1.769-1.338h-3.712c-2.791,0-4.519-2.646-4.519-5.098v-0.635
			c0-2.552,1.816-4.267,4.519-4.267H37c0.829,0,1.5,0.671,1.5,1.5s-0.671,1.5-1.5,1.5h-6.481C29,27.328,29,28.249,29,28.595v0.635
			c0,0.991,0.649,2.098,1.519,2.098h3.712c2.764,0,4.769,1.822,4.769,4.332C39,38.237,36.861,40.328,34.231,40.328z"/>
		<path id="path-8_4_" d="M32.5,43.828c-0.829,0-1.5-0.671-1.5-1.5v-21c0-0.829,0.671-1.5,1.5-1.5c0.829,0,1.5,0.671,1.5,1.5v21
			C34,43.157,33.329,43.828,32.5,43.828z"/>
	</g>
</g>
<g>
</g>
<g>
</g>
<g>
</g>
<g>
</g>
<g>
</g>
<g>
</g>
<g>
</g>
<g>
</g>
<g>
</g>
<g>
</g>
<g>
</g>
<g>
</g>
<g>
</g>
<g>
</g>
<g>
</g>
</svg>
