<?xml version="1.0" encoding="iso-8859-1"?>
<!-- Generator: Adobe Illustrator 19.1.0, SVG Export Plug-In . SVG Version: 6.00 Build 0)  -->
<svg version="1.1" id="Capa_1" xmlns="http://www.w3.org/2000/svg" xmlns:xlink="http://www.w3.org/1999/xlink" x="0px" y="0px"
	 viewBox="0 0 67 67" style="enable-background:new 0 0 67 67;" xml:space="preserve">
<g>
	<g id="group-16svg">
		<path id="path-1_7_" style="fill:#81BDA4;" d="M67,46.767c0,4.418-3.582,8-8,8H15c-4.418,0-8-3.582-8-8v-22c0-4.418,3.582-8,8-8
			h44c4.418,0,8,3.582,8,8V46.767z"/>
		<path id="path-2_7_" style="fill:#EDC951;" d="M53.722,16.791c0,0,0.278,14.501,13.278,13.101v-5.173
			c0-4.46-3.584-8.059-8.044-7.999L53.722,16.791z"/>
		<path id="path-3_7_" style="fill:#EDC951;" d="M20.47,55.162c0,0-0.47-14.501-13.47-13.101v5.173c0,4.46,3.68,8.059,8.14,7.999
			L20.47,55.162z"/>
		<path id="path-4_7_" d="M53.5,52.767h-44c-5.238,0-9.5-4.262-9.5-9.5v-22c0-5.238,4.262-9.5,9.5-9.5h44c5.238,0,9.5,4.262,9.5,9.5
			v22C63,48.505,58.738,52.767,53.5,52.767z M9.5,14.767c-3.584,0-6.5,2.916-6.5,6.5v22c0,3.584,2.916,6.5,6.5,6.5h44
			c3.584,0,6.5-2.916,6.5-6.5v-22c0-3.584-2.916-6.5-6.5-6.5H9.5z"/>
		<path id="path-5_7_" d="M59.783,28.487C59.782,28.487,59.782,28.487,59.783,28.487c-10.106,0-13.126-9.577-13.31-14.641
			c-0.015-0.404,0.133-0.796,0.412-1.089c0.278-0.293,0.663-0.461,1.067-0.466l5.488-0.072c5.272,0,9.56,4.262,9.56,9.5v5.173
			c0,0.767-0.577,1.409-1.34,1.492C61.02,28.453,60.389,28.487,59.783,28.487z M49.636,15.269
			c0.499,3.194,2.467,10.218,10.146,10.218c0,0,0,0,0.001,0c0.071,0,0.144,0,0.217-0.001v-3.767c0-3.584-2.942-6.5-6.56-6.5
			L49.636,15.269z"/>
		<path id="path-6_7_" d="M9.436,52.611C4.233,52.611,0,48.35,0,43.111v-5.173c0-0.766,0.577-1.409,1.34-1.491
			c0.639-0.069,1.27-0.104,1.876-0.104c10.108,0,12.966,9.594,13.064,14.667c0.008,0.4-0.144,0.786-0.422,1.072
			c-0.277,0.287-0.658,0.452-1.057,0.457L9.436,52.611z M3,39.345v3.766c0,3.584,2.888,6.5,6.436,6.5l3.709-0.05
			C12.705,46.355,10.829,39.226,3,39.345z"/>
		<path id="path-7_5_" d="M33.068,42.335c-5.428,0-9.844-4.416-9.844-9.843c0-5.429,4.416-9.844,9.844-9.844
			c1.502,0,2.945,0.33,4.288,0.981c0.745,0.362,1.057,1.259,0.696,2.004c-0.362,0.746-1.258,1.056-2.004,0.696
			c-0.932-0.452-1.935-0.681-2.98-0.681c-3.774,0-6.844,3.07-6.844,6.844c0,3.773,3.07,6.843,6.844,6.843
			c1.006,0,1.975-0.213,2.878-0.632c0.748-0.348,1.643-0.023,1.992,0.729c0.349,0.751,0.023,1.643-0.728,1.992
			C35.907,42.029,34.514,42.335,33.068,42.335z"/>
		<path id="path-8_5_" d="M37,31.767H21c-0.828,0-1.5-0.671-1.5-1.5s0.672-1.5,1.5-1.5h16c0.828,0,1.5,0.671,1.5,1.5
			S37.828,31.767,37,31.767z"/>
		<path id="path-9_4_" d="M37,36.767H21c-0.828,0-1.5-0.671-1.5-1.5c0-0.829,0.672-1.5,1.5-1.5h16c0.828,0,1.5,0.671,1.5,1.5
			C38.5,36.096,37.828,36.767,37,36.767z"/>
	</g>
</g>
<g>
</g>
<g>
</g>
<g>
</g>
<g>
</g>
<g>
</g>
<g>
</g>
<g>
</g>
<g>
</g>
<g>
</g>
<g>
</g>
<g>
</g>
<g>
</g>
<g>
</g>
<g>
</g>
<g>
</g>
</svg>
