<?xml version="1.0" encoding="iso-8859-1"?>
<!-- Generator: Adobe Illustrator 19.1.0, SVG Export Plug-In . SVG Version: 6.00 Build 0)  -->
<svg version="1.1" id="Capa_1" xmlns="http://www.w3.org/2000/svg" xmlns:xlink="http://www.w3.org/1999/xlink" x="0px" y="0px"
	 viewBox="0 0 65.254 65.254" style="enable-background:new 0 0 65.254 65.254;" xml:space="preserve">
<g>
	<g id="group-73svg">
		<path id="path-1_70_" style="fill:#EDC951;" d="M57.13,62h8.039c0-8-6.134-14.976-14.01-15.828
			c3.927-0.792,6.884-4.339,6.884-8.499c0-4.746-4.314-8.673-9.059-8.673h-8.078v33H57.13z"/>
		<path id="path-2_70_" style="fill:#EDC951;" d="M28.956,48.268c-2.344-1.356-4.966-1.987-7.901-1.987
			C12.442,46.281,5.585,53,5.585,62h11.321l0,0"/>
		<path id="path-3_70_" style="fill:#EDC951;" d="M27.208,30.685c-1.543-1.541-3.674-2.496-6.028-2.496
			c-4.709,0-8.526,3.817-8.526,8.525c0,4.709,3.817,8.525,8.526,8.525c2.905,0,5.472-1.453,7.011-3.673l0,0"/>
		<path id="path-4_59_" style="fill:#8B71B5;" d="M19.031,65.254c0-10.422,8.45-18.871,18.872-18.871s18.872,8.449,18.872,18.871
			l0,0"/>
		<path id="path-5_43_" style="fill:#EDC951;" d="M48.219,35.506c0,5.697-4.618,10.316-10.316,10.316s-10.316-4.619-10.316-10.316
			c0-5.698,4.618-10.317,10.316-10.317S48.219,29.808,48.219,35.506z"/>
		<path id="path-6_34_" d="M52.775,64.754c-0.829,0-1.5-0.672-1.5-1.5c0-9.578-7.793-17.371-17.372-17.371
			s-17.372,7.793-17.372,17.371c0,0.828-0.671,1.5-1.5,1.5c-0.828,0-1.5-0.672-1.5-1.5c0-11.233,9.139-20.371,20.372-20.371
			s20.372,9.138,20.372,20.371C54.275,64.082,53.603,64.754,52.775,64.754z"/>
		<path id="path-7_22_" d="M33.903,45.322c-6.516,0-11.816-5.301-11.816-11.816c0-6.516,5.3-11.817,11.816-11.817
			s11.816,5.301,11.816,11.817C45.719,40.021,40.419,45.322,33.903,45.322z M33.903,24.689c-4.861,0-8.816,3.955-8.816,8.817
			c0,4.861,3.955,8.816,8.816,8.816s8.816-3.955,8.816-8.816C42.719,28.644,38.764,24.689,33.903,24.689z"/>
		<path id="path-8_11_" d="M12.906,61H1.585c-0.828,0-1.5-0.672-1.5-1.5c0-9.745,7.296-17.094,16.97-17.094
			c3.087,0,5.998,0.779,8.652,2.315c0.718,0.414,0.963,1.332,0.548,2.048c-0.415,0.718-1.333,0.962-2.05,0.547
			c-2.192-1.267-4.597-1.91-7.15-1.91C9.594,45.406,3.853,50.723,3.156,58h9.75c0.829,0,1.5,0.672,1.5,1.5S13.735,61,12.906,61z"/>
		<path id="path-9_7_" d="M17.18,44.739c-5.528,0-10.025-4.497-10.025-10.024c0-5.529,4.497-10.026,10.025-10.026
			c2.678,0,5.195,1.043,7.089,2.936c0.586,0.586,0.586,1.536,0,2.121c-0.586,0.586-1.535,0.586-2.121,0
			c-1.328-1.326-3.092-2.057-4.968-2.057c-3.874,0-7.025,3.151-7.025,7.026c0,3.873,3.151,7.024,7.025,7.024
			c2.303,0,4.463-1.132,5.778-3.028c0.471-0.68,1.405-0.85,2.088-0.377c0.68,0.473,0.849,1.406,0.377,2.088
			C23.548,43.125,20.467,44.739,17.18,44.739z"/>
		<path id="path-10_6_" d="M61.168,61h-8.262c-0.828,0-1.5-0.672-1.5-1.5s0.672-1.5,1.5-1.5h6.68
			c-0.714-6.481-5.987-11.872-12.588-12.586c-0.736-0.08-1.304-0.684-1.338-1.424c-0.033-0.738,0.477-1.392,1.202-1.538
			c3.292-0.665,5.681-3.579,5.681-6.93c0-3.774-3.585-7.087-7.671-7.087c-0.829,0-1.5-0.67-1.5-1.499c0-0.829,0.671-1.501,1.5-1.501
			c5.784,0,10.671,4.62,10.671,10.087c0,3.18-1.509,6.083-3.902,7.947c6.512,2.488,11.027,8.765,11.027,16.031
			C62.668,60.328,61.997,61,61.168,61z"/>
		<path id="path-11_4_" style="fill:#E56A77;" d="M64.088,4H50.169c-0.992,0-1.796,0.803-1.796,1.795c0,0,0.007,12.278,0.012,12.356
			l-0.012,9.047L52.501,22h9.791c1.984,0,2.614-2.1,2.614-4.084V5.793C64.906,4.802,65.079,4,64.088,4z"/>
		<path id="path-12_2_" d="M45.372,26.387c-0.16,0-0.323-0.027-0.482-0.08c-0.609-0.207-1.007-0.78-1.006-1.422l0.022-8.862
			c0,0.002,0,0.004,0,0.004s-0.016-0.603-0.022-12.482C43.884,1.656,45.413,0,47.169,0h13.919c1.686,0,2.818,1.524,2.818,3.793
			v12.123c0,2.946-1.94,5.084-4.614,5.084h-9.051l-3.678,4.799C46.274,26.176,45.83,26.387,45.372,26.387z M47.169,3
			c-0.085,0.029-0.296,0.303-0.296,0.545c0.002,3.359,0.007,12.146,0.011,12.453l-0.005,4.457l1.431-1.867
			C48.594,18.217,49.034,18,49.501,18h9.791c1.498,0,1.614-1.595,1.614-2.084V3.793c0-0.355-0.057-0.629-0.111-0.793H47.169z"/>
		<path id="path-13_1_" d="M56.406,13.5c-0.828,0-1.5-0.672-1.5-1.5V9c0-0.828,0.672-1.5,1.5-1.5c0.829,0,1.5,0.672,1.5,1.5v3
			C57.906,12.828,57.235,13.5,56.406,13.5z"/>
		<path id="path-14_1_" d="M50.406,13.5c-0.828,0-1.5-0.672-1.5-1.5V9c0-0.828,0.672-1.5,1.5-1.5c0.829,0,1.5,0.672,1.5,1.5v3
			C51.906,12.828,51.235,13.5,50.406,13.5z"/>
	</g>
</g>
<g>
</g>
<g>
</g>
<g>
</g>
<g>
</g>
<g>
</g>
<g>
</g>
<g>
</g>
<g>
</g>
<g>
</g>
<g>
</g>
<g>
</g>
<g>
</g>
<g>
</g>
<g>
</g>
<g>
</g>
</svg>
