<svg xmlns="http://www.w3.org/2000/svg" height="800" width="1200" xml:space="preserve" y="0" x="0" id="Capa_1" version="1.1" viewBox="-58.2 -6.5 504.4 39"><style id="style26" type="text/css">.st0{fill:#000}</style><g transform="translate(-6)" id="g48"><g id="g36"><path id="polygon28" class="st0" d="M219.1.7v9.8h17.2V.7h3.6v24.7h-3.6V13.3h-17.2v12.1h-3.7V.7z"/><path id="path30" d="M277.6 23.2c3.3 0 6-1 8.1-2.8 2.1-1.9 3.2-4.3 3.2-7.2 0-2.9-1.1-5.3-3.2-7.2-2.1-1.9-4.9-2.8-8.1-2.8-3.2 0-5.9 1-8.1 2.8-2.1 1.9-3.2 4.3-3.2 7.2 0 2.9 1.1 5.3 3.2 7.2 2.2 1.8 4.8 2.8 8.1 2.8zm0 2.8c-4.4 0-8-1.3-10.8-3.7-2.8-2.4-4.3-5.5-4.3-9.3 0-3.8 1.5-6.9 4.3-9.3 2.8-2.4 6.4-3.7 10.8-3.7s8 1.3 10.9 3.7c2.9 2.4 4.3 5.5 4.3 9.3 0 3.8-1.5 6.8-4.3 9.3-2.9 2.5-6.5 3.7-10.9 3.7z" class="st0"/><path id="polygon32" class="st0" d="M318.5.7l11.7 15.1L342 .7h3.3v24.7h-3.6V6.1l-11.5 14.7-11.6-14.7v19.3h-3.5V.7z"/><path id="polygon34" class="st0" d="M392.9.7v2.9h-19.3v7.2h11.6v2.8h-11.6v9H394v2.8h-24V.7z"/></g><g id="g46"><path id="polygon38" class="st0" d="M7.6 3.6V.7h24.6L13 22.6h19.1v2.8H6L25.6 3.6z"/><path id="path40" d="M59.1 15.9h12.8l-6.5-11zm-9.4 9.5L64 .7h3l14.5 24.6h-3.9l-4-6.6H57.4l-3.9 6.6z" class="st0"/><path id="path42" d="M105.4 11.7h12.8c1.8 0 3.2-.4 4.2-1.1 1-.7 1.5-1.6 1.5-3 0-1.3-.5-2.3-1.5-3-1-.7-2.2-1.1-4-1.1h-13zm-3.6 13.7V.7h16.7c2.8 0 5 .6 6.7 1.8 1.7 1.2 2.4 2.9 2.4 5 0 1.7-.6 3.3-1.8 4.6-1.3 1.3-2.9 2-4.9 2.4l7.3 10.9h-4l-7.3-10.8h-11.3v10.8z" class="st0"/><path id="path44" d="M153.5 15.9h12.8l-6.4-11zm-9.3 9.5L158.5.8h3l14.4 24.6H172l-4-6.6h-16.1l-3.9 6.6z" class="st0"/></g></g></svg>